<?xml version="1.0" encoding="UTF-8"?>
<svg xmlns="http://www.w3.org/2000/svg" xmlns:xlink="http://www.w3.org/1999/xlink" width="224.87999pt" height="225pt" viewBox="0 0 224.87999 225" version="1.2">
<defs>
<clipPath id="clip1">
  <path d="M 45 41.171875 L 179.867188 41.171875 L 179.867188 176 L 45 176 Z M 45 41.171875 "/>
</clipPath>
</defs>
<g id="surface1">
<path style=" stroke:none;fill-rule:nonzero;fill:rgb(0%,25.489807%,50.19989%);fill-opacity:1;" d="M 112.441406 14.890625 C 110.90625 14.890625 109.371094 14.929688 107.839844 15.003906 C 106.304688 15.078125 104.773438 15.191406 103.246094 15.34375 C 101.71875 15.492188 100.199219 15.679688 98.679688 15.90625 C 97.160156 16.128906 95.648438 16.394531 94.144531 16.691406 C 92.640625 16.992188 91.140625 17.328125 89.652344 17.699219 C 88.164062 18.074219 86.6875 18.484375 85.21875 18.929688 C 83.75 19.375 82.292969 19.855469 80.847656 20.371094 C 79.402344 20.890625 77.96875 21.441406 76.550781 22.027344 C 75.132812 22.617188 73.730469 23.238281 72.34375 23.894531 C 70.957031 24.550781 69.585938 25.242188 68.230469 25.964844 C 66.878906 26.6875 65.542969 27.445312 64.226562 28.234375 C 62.910156 29.023438 61.613281 29.84375 60.339844 30.695312 C 59.0625 31.546875 57.808594 32.433594 56.574219 33.347656 C 55.34375 34.261719 54.132812 35.203125 52.945312 36.179688 C 51.757812 37.152344 50.597656 38.152344 49.460938 39.183594 C 48.324219 40.214844 47.210938 41.273438 46.128906 42.359375 C 45.042969 43.445312 43.984375 44.554688 42.953125 45.691406 C 41.921875 46.828125 40.921875 47.992188 39.945312 49.175781 C 38.972656 50.363281 38.027344 51.574219 37.113281 52.804688 C 36.199219 54.039062 35.316406 55.292969 34.464844 56.570312 C 33.613281 57.84375 32.789062 59.140625 32 60.457031 C 31.210938 61.773438 30.457031 63.109375 29.734375 64.464844 C 29.007812 65.816406 28.320312 67.1875 27.664062 68.574219 C 27.007812 69.960938 26.386719 71.363281 25.796875 72.78125 C 25.210938 74.199219 24.660156 75.632812 24.140625 77.078125 C 23.625 78.523438 23.144531 79.980469 22.699219 81.449219 C 22.25 82.917969 21.84375 84.394531 21.46875 85.882812 C 21.097656 87.375 20.761719 88.871094 20.460938 90.375 C 20.160156 91.882812 19.898438 93.394531 19.675781 94.910156 C 19.449219 96.429688 19.261719 97.953125 19.109375 99.480469 C 18.960938 101.007812 18.847656 102.535156 18.773438 104.070312 C 18.695312 105.601562 18.660156 107.136719 18.660156 108.671875 C 18.660156 110.207031 18.695312 111.738281 18.773438 113.273438 C 18.847656 114.804688 18.960938 116.335938 19.109375 117.863281 C 19.261719 119.390625 19.449219 120.914062 19.675781 122.433594 C 19.898438 123.949219 20.160156 125.460938 20.460938 126.96875 C 20.761719 128.472656 21.097656 129.96875 21.46875 131.457031 C 21.84375 132.945312 22.25 134.425781 22.699219 135.894531 C 23.144531 137.363281 23.625 138.820312 24.140625 140.265625 C 24.660156 141.710938 25.210938 143.140625 25.796875 144.558594 C 26.386719 145.976562 27.007812 147.378906 27.664062 148.769531 C 28.320312 150.15625 29.007812 151.527344 29.734375 152.878906 C 30.457031 154.234375 31.210938 155.566406 32 156.882812 C 32.789062 158.199219 33.613281 159.496094 34.464844 160.773438 C 35.316406 162.050781 36.199219 163.304688 37.113281 164.535156 C 38.027344 165.769531 38.972656 166.980469 39.945312 168.164062 C 40.921875 169.351562 41.921875 170.511719 42.953125 171.652344 C 43.984375 172.789062 45.042969 173.898438 46.128906 174.984375 C 47.210938 176.070312 48.324219 177.128906 49.460938 178.15625 C 50.597656 179.1875 51.757812 180.191406 52.945312 181.164062 C 54.132812 182.136719 55.34375 183.082031 56.574219 183.996094 C 57.808594 184.910156 59.0625 185.792969 60.339844 186.648438 C 61.613281 187.5 62.910156 188.320312 64.226562 189.109375 C 65.542969 189.898438 66.878906 190.65625 68.230469 191.378906 C 69.585938 192.101562 70.957031 192.792969 72.34375 193.449219 C 73.730469 194.105469 75.132812 194.726562 76.550781 195.3125 C 77.96875 195.902344 79.402344 196.453125 80.847656 196.96875 C 82.292969 197.488281 83.75 197.96875 85.21875 198.414062 C 86.6875 198.859375 88.164062 199.269531 89.652344 199.640625 C 91.140625 200.015625 92.640625 200.351562 94.144531 200.648438 C 95.648438 200.949219 97.160156 201.210938 98.679688 201.4375 C 100.199219 201.664062 101.71875 201.851562 103.246094 202 C 104.773438 202.152344 106.304688 202.265625 107.839844 202.339844 C 109.371094 202.414062 110.90625 202.453125 112.441406 202.453125 C 113.976562 202.453125 115.507812 202.414062 117.042969 202.339844 C 118.574219 202.265625 120.105469 202.152344 121.632812 202 C 123.160156 201.851562 124.683594 201.664062 126.199219 201.4375 C 127.71875 201.210938 129.230469 200.949219 130.734375 200.648438 C 132.242188 200.351562 133.738281 200.015625 135.226562 199.640625 C 136.714844 199.269531 138.195312 198.859375 139.664062 198.414062 C 141.132812 197.96875 142.589844 197.488281 144.035156 196.96875 C 145.480469 196.453125 146.910156 195.902344 148.328125 195.3125 C 149.746094 194.726562 151.148438 194.105469 152.535156 193.449219 C 153.921875 192.792969 155.292969 192.101562 156.648438 191.378906 C 158 190.65625 159.335938 189.898438 160.652344 189.109375 C 161.96875 188.320312 163.265625 187.5 164.542969 186.648438 C 165.816406 185.792969 167.074219 184.910156 168.304688 183.996094 C 169.539062 183.082031 170.746094 182.136719 171.933594 181.164062 C 173.121094 180.191406 174.28125 179.1875 175.417969 178.15625 C 176.554688 177.128906 177.667969 176.070312 178.753906 174.984375 C 179.839844 173.898438 180.894531 172.789062 181.925781 171.652344 C 182.957031 170.511719 183.960938 169.351562 184.933594 168.164062 C 185.90625 166.980469 186.851562 165.769531 187.765625 164.535156 C 188.679688 163.304688 189.5625 162.050781 190.414062 160.773438 C 191.269531 159.496094 192.089844 158.199219 192.878906 156.882812 C 193.667969 155.566406 194.421875 154.234375 195.148438 152.878906 C 195.871094 151.527344 196.558594 150.15625 197.214844 148.769531 C 197.871094 147.378906 198.496094 145.976562 199.082031 144.558594 C 199.667969 143.140625 200.222656 141.710938 200.738281 140.265625 C 201.253906 138.820312 201.738281 137.363281 202.183594 135.894531 C 202.628906 134.425781 203.039062 132.945312 203.410156 131.457031 C 203.78125 129.96875 204.121094 128.472656 204.417969 126.96875 C 204.71875 125.460938 204.980469 123.949219 205.207031 122.433594 C 205.429688 120.914062 205.617188 119.390625 205.769531 117.863281 C 205.917969 116.335938 206.03125 114.804688 206.109375 113.273438 C 206.183594 111.738281 206.21875 110.207031 206.21875 108.671875 C 206.21875 107.136719 206.183594 105.601562 206.109375 104.070312 C 206.03125 102.535156 205.917969 101.007812 205.769531 99.480469 C 205.617188 97.953125 205.429688 96.429688 205.207031 94.910156 C 204.980469 93.394531 204.71875 91.882812 204.417969 90.375 C 204.121094 88.871094 203.78125 87.375 203.410156 85.882812 C 203.039062 84.394531 202.628906 82.917969 202.183594 81.449219 C 201.738281 79.980469 201.253906 78.523438 200.738281 77.078125 C 200.222656 75.632812 199.667969 74.199219 199.082031 72.78125 C 198.496094 71.363281 197.871094 69.960938 197.214844 68.574219 C 196.558594 67.1875 195.871094 65.816406 195.148438 64.464844 C 194.421875 63.109375 193.667969 61.773438 192.878906 60.457031 C 192.089844 59.140625 191.269531 57.84375 190.414062 56.570312 C 189.5625 55.292969 188.679688 54.039062 187.765625 52.804688 C 186.851562 51.574219 185.90625 50.363281 184.933594 49.175781 C 183.960938 47.992188 182.957031 46.828125 181.925781 45.691406 C 180.894531 44.554688 179.839844 43.445312 178.753906 42.359375 C 177.667969 41.273438 176.554688 40.214844 175.417969 39.183594 C 174.28125 38.152344 173.121094 37.152344 171.933594 36.179688 C 170.746094 35.203125 169.539062 34.261719 168.304688 33.347656 C 167.074219 32.433594 165.816406 31.546875 164.542969 30.695312 C 163.265625 29.84375 161.96875 29.023438 160.652344 28.234375 C 159.335938 27.445312 158 26.6875 156.648438 25.964844 C 155.292969 25.242188 153.921875 24.550781 152.535156 23.894531 C 151.148438 23.238281 149.746094 22.617188 148.328125 22.027344 C 146.910156 21.441406 145.480469 20.890625 144.035156 20.371094 C 142.589844 19.855469 141.132812 19.375 139.664062 18.929688 C 138.195312 18.484375 136.714844 18.074219 135.226562 17.699219 C 133.738281 17.328125 132.242188 16.992188 130.734375 16.691406 C 129.230469 16.394531 127.71875 16.128906 126.199219 15.90625 C 124.683594 15.679688 123.160156 15.492188 121.632812 15.34375 C 120.105469 15.191406 118.574219 15.078125 117.042969 15.003906 C 115.507812 14.929688 113.976562 14.890625 112.441406 14.890625 Z M 112.441406 14.890625 "/>
<g clip-path="url(#clip1)" clip-rule="nonzero">
<path style=" stroke:none;fill-rule:nonzero;fill:rgb(100%,100%,100%);fill-opacity:1;" d="M 165.074219 64.113281 L 157.035156 56.074219 L 166.195312 46.917969 L 174.230469 54.953125 Z M 175.160156 83.546875 C 175.160156 87.558594 171.902344 90.816406 167.894531 90.816406 C 165.949219 90.816406 164.128906 90.0625 162.753906 88.6875 L 132.460938 58.394531 C 131.085938 57.019531 130.332031 55.199219 130.332031 53.253906 C 130.332031 49.246094 133.589844 45.988281 137.601562 45.988281 C 139.542969 45.988281 141.363281 46.742188 142.738281 48.117188 L 173.03125 78.410156 C 174.40625 79.785156 175.160156 81.605469 175.160156 83.546875 Z M 175.160156 110.445312 C 175.160156 114.453125 171.902344 117.710938 167.894531 117.710938 C 165.949219 117.710938 164.128906 116.957031 162.753906 115.582031 L 105.566406 58.394531 C 104.191406 57.019531 103.4375 55.199219 103.4375 53.253906 C 103.4375 49.246094 106.695312 45.988281 110.703125 45.988281 C 112.648438 45.988281 114.46875 46.742188 115.84375 48.117188 L 159.585938 91.855469 C 159.585938 91.867188 159.585938 91.867188 159.585938 91.867188 L 173.03125 105.304688 C 174.40625 106.679688 175.160156 108.5 175.160156 110.445312 Z M 97.835938 131.351562 L 89.796875 123.316406 L 126.972656 86.140625 L 135.007812 94.175781 Z M 121.367188 164.238281 C 121.367188 168.246094 118.109375 171.503906 114.101562 171.503906 C 112.15625 171.503906 110.335938 170.75 108.960938 169.375 L 65.222656 125.636719 C 65.222656 125.625 65.222656 125.625 65.222656 125.625 L 51.773438 112.1875 C 50.398438 110.8125 49.644531 108.992188 49.644531 107.046875 C 49.644531 103.039062 52.902344 99.78125 56.914062 99.78125 C 58.855469 99.78125 60.675781 100.535156 62.050781 101.910156 L 119.242188 159.097656 C 120.613281 160.472656 121.367188 162.292969 121.367188 164.238281 Z M 87.207031 171.503906 C 85.261719 171.503906 83.441406 170.75 82.066406 169.375 L 51.773438 139.082031 C 50.398438 137.707031 49.644531 135.886719 49.644531 133.945312 C 49.644531 129.933594 52.902344 126.675781 56.914062 126.675781 C 58.855469 126.675781 60.675781 127.429688 62.050781 128.804688 L 92.34375 159.097656 C 93.71875 160.472656 94.472656 162.292969 94.472656 164.238281 C 94.472656 168.246094 91.214844 171.503906 87.207031 171.503906 Z M 58.609375 170.574219 L 50.574219 162.539062 L 59.730469 153.378906 L 67.769531 161.417969 Z M 178.984375 53.371094 L 167.777344 42.164062 C 166.902344 41.289062 165.484375 41.289062 164.609375 42.164062 L 153.867188 52.90625 L 145.910156 44.945312 C 143.683594 42.722656 140.734375 41.507812 137.601562 41.507812 C 131.578125 41.507812 126.65625 46.078125 125.980469 51.917969 L 119.011719 44.945312 C 116.789062 42.722656 113.839844 41.507812 110.703125 41.507812 C 104.226562 41.507812 98.953125 46.777344 98.953125 53.253906 C 98.953125 56.398438 100.179688 59.347656 102.394531 61.5625 L 123.800781 82.972656 L 86.628906 120.144531 L 65.222656 98.738281 C 62.996094 96.515625 60.046875 95.296875 56.914062 95.296875 C 50.433594 95.296875 45.164062 100.570312 45.164062 107.046875 C 45.164062 110.191406 46.386719 113.140625 48.605469 115.355469 L 55.574219 122.324219 C 49.734375 123 45.164062 127.917969 45.164062 133.945312 C 45.164062 137.085938 46.386719 140.035156 48.605469 142.253906 L 56.5625 150.210938 L 45.820312 160.953125 C 44.945312 161.828125 44.945312 163.246094 45.820312 164.121094 L 57.027344 175.328125 C 57.464844 175.765625 58.03125 175.984375 58.609375 175.984375 C 59.1875 175.984375 59.757812 175.765625 60.195312 175.328125 L 70.9375 164.585938 L 78.898438 172.546875 C 81.121094 174.769531 84.070312 175.984375 87.207031 175.984375 C 93.230469 175.984375 98.148438 171.414062 98.824219 165.574219 L 105.792969 172.546875 C 108.015625 174.769531 110.96875 175.984375 114.101562 175.984375 C 120.578125 175.984375 125.851562 170.714844 125.851562 164.238281 C 125.851562 161.09375 124.625 158.144531 122.410156 155.929688 L 101.003906 134.519531 L 138.179688 97.347656 L 159.585938 118.753906 C 161.808594 120.976562 164.757812 122.195312 167.894531 122.195312 C 174.371094 122.195312 179.640625 116.921875 179.640625 110.445312 C 179.640625 107.300781 178.417969 104.351562 176.203125 102.136719 L 169.222656 95.167969 C 175.074219 94.492188 179.640625 89.570312 179.640625 83.546875 C 179.640625 80.40625 178.417969 77.453125 176.203125 75.238281 L 168.242188 67.28125 L 178.984375 56.539062 C 179.863281 55.664062 179.863281 54.246094 178.984375 53.371094 "/>
</g>
</g>
</svg>
