<?xml version="1.0" standalone="no"?>
<!DOCTYPE svg PUBLIC "-//W3C//DTD SVG 20010904//EN"
 "http://www.w3.org/TR/2001/REC-SVG-20010904/DTD/svg10.dtd">
<svg version="1.0" xmlns="http://www.w3.org/2000/svg"
 width="700.000000pt" height="700.000000pt" viewBox="0 0 700.000000 700.000000"
 preserveAspectRatio="xMidYMid meet">
<metadata>
Created by potrace 1.11, written by Peter Selinger 2001-2013
</metadata>
<g transform="translate(0.000000,700.000000) scale(0.100000,-0.100000)"
fill="#000000" stroke="none">
<path d="M3295 6529 c-710 -48 -1393 -366 -1890 -880 -434 -449 -700 -995
-796 -1629 -30 -196 -33 -571 -5 -765 94 -680 387 -1264 864 -1727 460 -445
1020 -715 1672 -804 153 -21 536 -24 685 -5 597 75 1133 309 1574 687 774 663
1145 1679 980 2688 -218 1337 -1332 2344 -2694 2436 -167 11 -216 11 -390 -1z
m290 -849 c52 -20 79 -42 197 -158 l137 -134 11 43 c53 197 247 314 439 265
92 -24 120 -43 279 -200 l142 -140 178 177 c148 147 183 177 207 177 24 0 61
-32 222 -193 174 -173 193 -195 193 -226 0 -30 -17 -50 -177 -207 l-178 -173
148 -149 c167 -170 196 -217 205 -332 6 -90 -12 -158 -60 -230 -46 -70 -132
-132 -208 -150 l-52 -12 131 -132 c163 -165 186 -207 186 -341 0 -78 -4 -98
-28 -150 -36 -78 -104 -146 -181 -182 -53 -24 -73 -28 -151 -28 -155 0 -152
-2 -568 413 l-357 357 -575 -575 c-316 -316 -575 -579 -575 -585 0 -5 159
-169 354 -365 217 -217 362 -371 374 -395 73 -146 39 -322 -83 -434 -79 -72
-145 -94 -260 -89 -129 6 -163 25 -321 180 -72 70 -134 128 -137 128 -4 0 -7
-10 -7 -22 0 -47 -56 -142 -113 -195 -81 -74 -146 -96 -262 -91 -130 6 -167
28 -345 204 l-146 143 -174 -174 c-149 -149 -179 -175 -205 -175 -25 0 -58 28
-222 192 -166 165 -193 197 -193 223 0 26 26 56 175 205 l174 174 -144 147
c-182 185 -200 217 -200 364 0 89 3 106 28 157 36 73 119 150 192 177 31 12
62 21 70 21 8 0 15 3 15 7 0 4 -56 64 -124 133 -79 80 -134 145 -152 180 -27
50 -29 64 -29 160 0 96 3 110 28 158 40 75 87 124 159 163 55 29 74 34 153 37
75 3 100 0 150 -18 56 -21 82 -45 420 -381 198 -198 365 -359 370 -359 6 0
269 259 585 575 l575 575 -357 357 c-390 391 -401 406 -414 529 -9 87 10 163
59 237 99 147 273 200 442 137z"/>
<path d="M3370 5557 c-53 -17 -123 -93 -139 -150 -15 -54 -10 -121 15 -170 24
-49 1840 -1854 1889 -1878 180 -85 380 115 296 296 -13 28 -305 326 -940 960
-737 736 -929 923 -963 937 -49 19 -107 21 -158 5z"/>
<path d="M4206 5555 c-49 -17 -103 -68 -127 -120 -25 -54 -25 -137 1 -189 13
-27 190 -211 522 -542 539 -538 526 -526 629 -526 158 0 267 173 200 317 -13
27 -183 204 -527 546 -436 433 -515 507 -550 517 -53 15 -100 14 -148 -3z"/>
<path d="M5032 5397 l-142 -142 125 -125 125 -125 143 143 142 142 -125 125
-125 125 -143 -143z"/>
<path d="M3375 3740 l-580 -580 120 -120 c66 -66 124 -120 130 -120 5 0 269
259 585 575 l575 575 -125 125 -125 125 -580 -580z"/>
<path d="M1730 3890 c-73 -14 -136 -64 -164 -132 -21 -48 -20 -140 0 -181 23
-46 1840 -1864 1888 -1889 50 -26 139 -27 191 -2 58 27 103 81 121 142 18 60
13 105 -16 167 -26 54 -1830 1855 -1880 1877 -45 20 -96 26 -140 18z"/>
<path d="M1708 3051 c-95 -31 -158 -116 -158 -215 0 -39 7 -74 20 -100 13 -27
190 -211 522 -542 542 -540 528 -528 631 -526 157 3 261 168 196 312 -15 34
-139 164 -512 538 -283 284 -508 502 -531 514 -44 22 -127 32 -168 19z"/>
<path d="M1715 2080 l-140 -140 120 -120 c66 -66 124 -120 130 -120 6 0 72 62
148 138 l137 137 -123 123 c-67 67 -125 122 -127 122 -3 0 -68 -63 -145 -140z"/>
</g>
</svg>
